<svg width="139" height="139" viewBox="0 0 139 139" fill="none" xmlns="http://www.w3.org/2000/svg">
<g clip-path="url(#clip0)">
<path d="M137.922 69.5037L69.5 1.08154L1.07781 69.5037L69.5 137.926L137.922 69.5037Z" fill="white"/>
<path d="M69.5 139C69.2147 138.999 68.9412 138.885 68.7398 138.683L0.31681 70.2598C0.114667 70.0584 0.000736189 69.7849 3.70886e-05 69.4996C-0.00330446 69.3577 0.0231642 69.2168 0.0777308 69.0858C0.132297 68.9549 0.213747 68.8368 0.31681 68.7393L68.7398 0.316335C68.9417 0.115159 69.215 0.00219727 69.5 0.00219727C69.785 0.00219727 70.0584 0.115159 70.2603 0.316335L138.683 68.7393C138.786 68.8368 138.868 68.9549 138.922 69.0858C138.977 69.2168 139.003 69.3577 139 69.4996C138.999 69.7849 138.885 70.0584 138.683 70.2598L70.2603 138.683C70.0589 138.885 69.7854 138.999 69.5 139ZM2.59758 69.4996L69.5 136.402L136.402 69.4996L69.5 2.5971L2.59758 69.4996Z" fill="#DEDEDE"/>
<path d="M128.679 69.5186L69.5 10.3398L10.3212 69.5186L69.5 128.697L128.679 69.5186Z" fill="#686DC4"/>
<path d="M69.5 112.074C93.0131 112.074 112.074 93.013 112.074 69.4998C112.074 45.9867 93.0131 26.9255 69.5 26.9255C45.9868 26.9255 26.9257 45.9867 26.9257 69.4998C26.9257 93.013 45.9868 112.074 69.5 112.074Z" fill="white"/>
<path d="M92.7089 95.8977L67.3037 70.4925V43.8413H69.4155V69.6266L94.2083 94.4194L92.7089 95.8977Z" fill="#DEDEDE"/>
<path d="M69.5 80.9039C75.7982 80.9039 80.9039 75.7982 80.9039 69.5C80.9039 63.2019 75.7982 58.0962 69.5 58.0962C63.2019 58.0962 58.0962 63.2019 58.0962 69.5C58.0962 75.7982 63.2019 80.9039 69.5 80.9039Z" fill="white"/>
<path d="M60.6937 78.3062C58.9501 76.5641 57.7622 74.344 57.2805 71.9267C56.7988 69.5095 57.0449 67.0036 57.9876 64.7262C58.9303 62.4489 60.5273 60.5022 62.5766 59.1326C64.6258 57.763 67.0352 57.032 69.5 57.032C71.9648 57.032 74.3742 57.763 76.4235 59.1326C78.4727 60.5022 80.0697 62.4489 81.0124 64.7262C81.9551 67.0036 82.2012 69.5095 81.7195 71.9267C81.2378 74.344 80.05 76.5641 78.3063 78.3062C75.97 80.6403 72.8026 81.9515 69.5 81.9515C66.1975 81.9515 63.0301 80.6403 60.6937 78.3062ZM76.8069 62.1719C75.3597 60.7248 73.5159 59.7393 71.5086 59.3401C69.5013 58.941 67.4208 59.1459 65.53 59.9292C63.6392 60.7124 62.0232 62.0387 60.8862 63.7404C59.7492 65.4421 59.1423 67.4427 59.1423 69.4893C59.1423 71.5359 59.7492 73.5365 60.8862 75.2382C62.0232 76.9399 63.6392 78.2662 65.53 79.0494C67.4208 79.8327 69.5013 80.0377 71.5086 79.6385C73.5159 79.2393 75.3597 78.2538 76.8069 76.8068C77.7704 75.8473 78.535 74.7069 79.0567 73.4512C79.5784 72.1955 79.8469 70.8491 79.8469 69.4893C79.8469 68.1295 79.5784 66.7831 79.0567 65.5274C78.535 64.2717 77.7704 63.1313 76.8069 62.1719Z" fill="#DEDEDE"/>
<path d="M69.5 76.1311C73.1623 76.1311 76.1311 73.1623 76.1311 69.5C76.1311 65.8377 73.1623 62.8689 69.5 62.8689C65.8377 62.8689 62.8689 65.8377 62.8689 69.5C62.8689 73.1623 65.8377 76.1311 69.5 76.1311Z" fill="#686DC4"/>
</g>
<defs>
<clipPath id="clip0">
<rect width="139" height="139" fill="white"/>
</clipPath>
</defs>
</svg>
