<svg width="97" height="112" viewBox="0 0 97 112" fill="none" xmlns="http://www.w3.org/2000/svg">
<path d="M15.294 29.1211C23.0248 29.1211 29.2918 22.8905 29.2918 15.2048C29.2918 7.51909 23.0248 1.28857 15.294 1.28857C7.56315 1.28857 1.2961 7.51909 1.2961 15.2048C1.2961 22.8905 7.56315 29.1211 15.294 29.1211Z" fill="white"/>
<path d="M15.294 30.4096C12.2691 30.4096 9.31217 29.5178 6.7971 27.8471C4.28202 26.1764 2.32175 23.8017 1.16419 21.0234C0.00662276 18.2451 -0.296249 15.1879 0.293872 12.2385C0.883993 9.28905 2.3406 6.57981 4.4795 4.45339C6.6184 2.32696 9.34352 0.878843 12.3103 0.292163C15.277 -0.294517 18.3521 0.00658793 21.1467 1.1574C23.9413 2.30822 26.3299 4.25705 28.0104 6.75747C29.691 9.25788 30.5879 12.1976 30.5879 15.2048C30.5811 19.2353 28.9676 23.0987 26.1009 25.9487C23.2342 28.7987 19.3481 30.4028 15.294 30.4096ZM15.294 2.57709C12.7818 2.57709 10.326 3.31769 8.23724 4.70524C6.14845 6.09279 4.52043 8.06497 3.55906 10.3724C2.5977 12.6798 2.34616 15.2188 2.83626 17.6683C3.32636 20.1179 4.53609 22.3679 6.31246 24.1339C8.08884 25.8999 10.3521 27.1026 12.816 27.5899C15.2799 28.0771 17.8338 27.827 20.1547 26.8713C22.4757 25.9155 24.4594 24.297 25.8551 22.2204C27.2508 20.1438 27.9957 17.7023 27.9957 15.2048C27.9889 11.8578 26.6485 8.64986 24.2679 6.28318C21.8873 3.9165 18.6606 2.5839 15.294 2.57709Z" fill="#DEDEDE"/>
<path d="M81.706 110.711C89.4368 110.711 95.7039 104.481 95.7039 96.7952C95.7039 89.1094 89.4368 82.8789 81.706 82.8789C73.9752 82.8789 67.7082 89.1094 67.7082 96.7952C67.7082 104.481 73.9752 110.711 81.706 110.711Z" fill="white"/>
<path d="M81.706 112C78.6812 112 75.7243 111.108 73.2092 109.437C70.6941 107.767 68.7338 105.392 67.5763 102.614C66.4187 99.8354 66.1158 96.7783 66.7059 93.8288C67.2961 90.8794 68.7527 88.1701 70.8916 86.0437C73.0305 83.9173 75.7556 82.4692 78.7223 81.8825C81.6891 81.2958 84.7642 81.5969 87.5588 82.7477C90.3534 83.8986 92.742 85.8474 94.4225 88.3478C96.103 90.8482 97 93.7879 97 96.7951C97 100.828 95.3887 104.695 92.5205 107.547C89.6523 110.398 85.7623 112 81.706 112ZM81.706 84.1674C79.1939 84.1674 76.7381 84.908 74.6493 86.2956C72.5605 87.6831 70.9325 89.6553 69.9711 91.9627C69.0098 94.2701 68.7582 96.8091 69.2483 99.2587C69.7384 101.708 70.9482 103.958 72.7245 105.724C74.5009 107.49 76.7642 108.693 79.2281 109.18C81.692 109.667 84.2459 109.417 86.5668 108.462C88.8877 107.506 90.8715 105.887 92.2672 103.811C93.6629 101.734 94.4078 99.2926 94.4078 96.7951C94.4078 93.4461 93.0696 90.2341 90.6876 87.866C88.3055 85.4978 85.0748 84.1674 81.706 84.1674Z" fill="#DEDEDE"/>
<path d="M15.294 23.2969C19.7893 23.2969 23.4335 19.6739 23.4335 15.2048C23.4335 10.7357 19.7893 7.11279 15.294 7.11279C10.7986 7.11279 7.15446 10.7357 7.15446 15.2048C7.15446 19.6739 10.7986 23.2969 15.294 23.2969Z" fill="#A2E0CE"/>
<path d="M81.706 104.887C86.2014 104.887 89.8455 101.264 89.8455 96.7952C89.8455 92.3261 86.2014 88.7031 81.706 88.7031C77.2107 88.7031 73.5665 92.3261 73.5665 96.7952C73.5665 101.264 77.2107 104.887 81.706 104.887Z" fill="#A2E0CE"/>
<path d="M15.294 44.0167C17.4557 44.0167 19.2082 42.2744 19.2082 40.1253C19.2082 37.9761 17.4557 36.2339 15.294 36.2339C13.1322 36.2339 11.3797 37.9761 11.3797 40.1253C11.3797 42.2744 13.1322 44.0167 15.294 44.0167Z" fill="#DEDEDE"/>
<path d="M15.294 59.2471C17.4557 59.2471 19.2082 57.5049 19.2082 55.3558C19.2082 53.2066 17.4557 51.4644 15.294 51.4644C13.1322 51.4644 11.3797 53.2066 11.3797 55.3558C11.3797 57.5049 13.1322 59.2471 15.294 59.2471Z" fill="#DEDEDE"/>
<path d="M31.9877 59.2471C34.1495 59.2471 35.9019 57.5049 35.9019 55.3558C35.9019 53.2066 34.1495 51.4644 31.9877 51.4644C29.8259 51.4644 28.0735 53.2066 28.0735 55.3558C28.0735 57.5049 29.8259 59.2471 31.9877 59.2471Z" fill="#DEDEDE"/>
<path d="M48.6296 59.2471C50.7914 59.2471 52.5438 57.5049 52.5438 55.3558C52.5438 53.2066 50.7914 51.4644 48.6296 51.4644C46.4679 51.4644 44.7154 53.2066 44.7154 55.3558C44.7154 57.5049 46.4679 59.2471 48.6296 59.2471Z" fill="#DEDEDE"/>
<path d="M48.6296 44.0167C50.7914 44.0167 52.5438 42.2744 52.5438 40.1253C52.5438 37.9761 50.7914 36.2339 48.6296 36.2339C46.4679 36.2339 44.7154 37.9761 44.7154 40.1253C44.7154 42.2744 46.4679 44.0167 48.6296 44.0167Z" fill="#DEDEDE"/>
<path d="M48.6296 28.3736C50.7914 28.3736 52.5438 26.6314 52.5438 24.4822C52.5438 22.3331 50.7914 20.5908 48.6296 20.5908C46.4679 20.5908 44.7154 22.3331 44.7154 24.4822C44.7154 26.6314 46.4679 28.3736 48.6296 28.3736Z" fill="#DEDEDE"/>
<path d="M66.1788 28.3736C68.3405 28.3736 70.093 26.6314 70.093 24.4822C70.093 22.3331 68.3405 20.5908 66.1788 20.5908C64.017 20.5908 62.2646 22.3331 62.2646 24.4822C62.2646 26.6314 64.017 28.3736 66.1788 28.3736Z" fill="#DEDEDE"/>
<path d="M81.706 28.3736C83.8678 28.3736 85.6203 26.6314 85.6203 24.4822C85.6203 22.3331 83.8678 20.5908 81.706 20.5908C79.5443 20.5908 77.7918 22.3331 77.7918 24.4822C77.7918 26.6314 79.5443 28.3736 81.706 28.3736Z" fill="#DEDEDE"/>
<path d="M81.706 44.0167C83.8678 44.0167 85.6203 42.2744 85.6203 40.1253C85.6203 37.9761 83.8678 36.2339 81.706 36.2339C79.5443 36.2339 77.7918 37.9761 77.7918 40.1253C77.7918 42.2744 79.5443 44.0167 81.706 44.0167Z" fill="#DEDEDE"/>
<path d="M81.706 59.2471C83.8678 59.2471 85.6203 57.5049 85.6203 55.3558C85.6203 53.2066 83.8678 51.4644 81.706 51.4644C79.5443 51.4644 77.7918 53.2066 77.7918 55.3558C77.7918 57.5049 79.5443 59.2471 81.706 59.2471Z" fill="#DEDEDE"/>
<path d="M81.706 75.0963C83.8678 75.0963 85.6203 73.354 85.6203 71.2049C85.6203 69.0557 83.8678 67.3135 81.706 67.3135C79.5443 67.3135 77.7918 69.0557 77.7918 71.2049C77.7918 73.354 79.5443 75.0963 81.706 75.0963Z" fill="#DEDEDE"/>
</svg>
